<?xml version="1.0" encoding="utf-8"?>
<!-- Generator: Adobe Illustrator 25.4.1, SVG Export Plug-In . SVG Version: 6.00 Build 0)  -->
<svg version="1.1" id="Layer_1" xmlns="http://www.w3.org/2000/svg" xmlns:xlink="http://www.w3.org/1999/xlink" x="0px" y="0px"
	 viewBox="0 0 145.9 35" style="enable-background:new 0 0 145.9 35;" xml:space="preserve">
<style type="text/css">
	.st0{fill:#0A6CCB;}
	.st1{fill:#D80E0E;}
</style>
<g id="logo-inet">
	<polygon class="st0" points="131.3,9.2 145.9,9.2 145.9,0.2 107.6,0.2 107.5,9.2 122.3,9.2 122.3,34.7 131.3,34.7 	"/>
	<path class="st1" d="M77.2,13.1c-0.5,0.6-1.2,0.9-2,0.9c-1.6,0-2.9-1.2-2.9-2.8s1.2-2.9,2.8-2.9c0.8,0,1.6,0.3,2.1,0.9H103v-9H73.2
		C68.6,0.2,64.9,4,65,8.5v17.8c0,4.6,3.6,8.3,8.2,8.3c0,0,0,0,0,0H103v-9H77.2c-0.5,0.6-1.2,0.9-2,0.9c-1.6,0-2.8-1.3-2.8-2.8
		c0-1.6,1.3-2.8,2.8-2.8c0.8,0,1.5,0.3,2,0.9H103v-8.7H77.2z"/>
	<path class="st0" d="M53.8,34.8c4.6,0,7.1-4.2,7.1-7.8v-2.9l0,0V0.5h-9v23.7L33.3,5.7c-4.8-4.4-7.3-5.3-10-5.3
		c-3.8-0.1-7,3-7.1,6.8c0,0.1,0,0.3,0,0.4v2l0,0V35h9V10.3l20,20C49.1,33.6,51.1,34.9,53.8,34.8L53.8,34.8z"/>
	<path class="st0" d="M11.7,5.8c0,3.2-2.6,5.8-5.8,5.8S0,9,0,5.8S2.6,0,5.8,0c0,0,0,0,0,0C9,0,11.7,2.6,11.7,5.8z"/>
	<path class="st0" d="M1.5,15.3c0,0,3.7,2.5,8.9,0V35h-9L1.5,15.3z"/>
</g>
</svg>
